#!OML:ASF F:\VICON\USERDATA\INSTALL\rory3\rory3.ASF
:FULLY-SPECIFIED
:DEGREES
259
root 0.0582509 16.4829 -14.8842 85.2058 -18.7834 -403.651
lowerback 15.0613 1.75715 -5.62806
upperback -1.49467 0.753114 -4.58466
thorax -10.1558 0.488129 -1.97536
lowerneck -23.6682 -1.71041 -3.66301
upperneck 2.29466 -3.38989 20.1842
head 5.09518 -0.417017 6.78204
rclavicle -2.8625e-014 -1.59028e-014
rhumerus -13.18 -21.2368 -2.55586
rradius 37.7973
rwrist 3.83161
rhand -30.5719 -66.0606
rfingers 7.12502
rthumb -3.86977 96.0052
lclavicle -2.8625e-014 -1.59028e-014
lhumerus 1.28581 1.11515 28.8172
lradius 42.2243
lwrist 26.8119
lhand -43.7372 327.031
lfingers 7.12502
lthumb -16.5682 -3.65609
rfemur -44.6315 -6.0369 46.9997
rtibia 35.4057
rfoot 7.12682 -9.19816
rtoes -12.4833
lfemur -87.2856 21.3462 4.72129
ltibia 55.9257
lfoot -27.7859 34.2646
ltoes 9.90509
260
root 0.063036 16.5463 -14.9407 84.79 -19.706 -404.046
lowerback 15.0509 1.91054 -5.28502
upperback -1.439 1.04105 -4.43651
thorax -10.0837 0.610195 -2.07151
lowerneck -23.5071 -2.01836 -4.13945
upperneck 2.583 -3.84597 21.1975
head 5.27724 -0.58275 7.16089
rclavicle 2.54444e-014 -9.54166e-015
rhumerus -13.5328 -21.3961 -4.29921
rradius 38.431
rwrist 4.19407
rhand -28.8688 -66.3173
rfingers 7.12502
rthumb -2.22497 96.2855
lclavicle 2.54444e-014 -9.54166e-015
lhumerus 0.186232 0.953801 30.6328
lradius 43.0153
lwrist 26.7064
lhand -43.1489 327.096
lfingers 7.12502
lthumb -16.0018 -3.54442
rfemur -44.348 -6.04196 46.5319
rtibia 35.1181
rfoot 7.18009 -9.82228
rtoes -11.7085
lfemur -85.9821 21.21 4.9983
ltibia 55.537
lfoot -27.105 34.9044
ltoes 9.48759
261
root 0.0664549 16.6073 -15.007 84.4223 -20.639 -404.3
lowerback 14.8603 2.0143 -4.84639
upperback -1.39301 1.29116 -4.33064
thorax -9.91294 0.708488 -2.25105
lowerneck -22.8817 -2.08446 -3.77748
upperneck 2.32811 -3.96436 20.871
head 5.09218 -0.710972 6.95374
rclavicle 1.27222e-014 5.56597e-015
rhumerus -13.8923 -21.1901 -6.00082
rradius 38.8418
rwrist 4.10162
rhand -27.6921 -66.5774
rfingers 7.12502
rthumb -1.08852 96.5544
lclavicle 1.27222e-014 5.56597e-015
lhumerus -0.84201 0.616828 32.4423
lradius 43.5992
lwrist 26.3783
lhand -42.6358 326.534
lfingers 7.12502
lthumb -15.5076 -4.06758
rfemur -44.1646 -5.57937 45.7654
rtibia 34.8831
rfoot 6.53746 -11.2721
rtoes -8.00344
lfemur -84.9236 21.0996 5.11566
ltibia 55.1428
lfoot -27.1289 34.4718
ltoes 10.4255
262
root 0.0684458 16.6595 -15.072 84.0688 -21.224 -404.479
lowerback 14.7173 1.93519 -4.18068
upperback -2.07323 1.32483 -4.04581
thorax -10.5726 0.70883 -2.34913
lowerneck -19.1366 -1.7016 -3.27703
upperneck 1.34245 -3.26443 20.3295
head 4.06756 -0.653217 6.68654
rclavicle 1.90833e-014 2.94201e-014
rhumerus -14.1793 -18.8746 -7.90867
rradius 39.3889
rwrist 2.67062
rhand -29.2507 -66.6236
rfingers 7.12502
rthumb -2.59387 96.5876
lclavicle 1.90833e-014 2.94201e-014
lhumerus -3.27087 -0.741151 33.9936
lradius 44.5084
lwrist 25.8545
lhand -42.1671 326.105
lfingers 7.12502
lthumb -15.0561 -4.46296
rfemur -43.9892 -5.30368 45.4072
rtibia 34.5278
rfoot 6.28705 -12.1992
rtoes -6.17828
lfemur -83.9521 20.9735 5.47473
ltibia 54.6826
lfoot -26.9253 34.0515
ltoes 11.3679
263
root 0.0709875 16.7258 -15.1091 83.5981 -22.273 -404.591
lowerback 14.7928 1.99873 -4.29066
upperback -2.55848 1.41497 -3.61387
thorax -11.173 0.78297 -1.86279
lowerneck -16.9131 -1.8449 -3.81057
upperneck 1.1375 -3.28595 20.6235
head 3.66465 -0.78743 6.84641
rclavicle -1.145e-013 3.97569e-014
rhumerus -14.3953 -16.9698 -9.34601
rradius 39.9912
rwrist 1.08145
rhand -30.5143 -66.8204
rfingers 7.12502
rthumb -3.81414 96.766
lclavicle -1.145e-013 3.97569e-014
lhumerus -5.36286 -2.09627 35.7617
lradius 45.3349
lwrist 25.5825
lhand -41.8625 325.803
lfingers 7.12502
lthumb -14.7627 -4.74294
rfemur -43.7862 -5.63366 44.7969
rtibia 34.121
rfoot 7.2559 -11.6886
rtoes -9.10235
lfemur -82.5019 20.3939 5.68125
ltibia 54.1132
lfoot -26.5354 34.4221
ltoes 7.10349
264
root 0.0752452 16.8102 -15.1307 82.8028 -23.5914 -404.543
lowerback 15.0326 1.99089 -4.27075
upperback -2.61299 1.40949 -3.44944
thorax -11.3783 0.787318 -1.70514
lowerneck -16.3576 -2.13792 -4.57414
upperneck 1.86548 -3.72503 21.4908
head 3.89484 -0.963356 7.23447
rclavicle 6.36111e-015 1.43125e-014
rhumerus -14.5946 -16.0923 -10.9229
rradius 40.4622
rwrist 0.910091
rhand -29.4467 -66.3296
rfingers 7.12502
rthumb -2.78308 96.2912
lclavicle 6.36111e-015 1.43125e-014
lhumerus -6.91158 -3.06739 37.4107
lradius 46.0243
lwrist 25.2816
lhand -41.8122 325.739
lfingers 7.12502
lthumb -14.7142 -4.80361
rfemur -43.3097 -6.05914 43.7548
rtibia 33.6712
rfoot 7.81714 -11.4121
rtoes -9.26329
lfemur -80.6754 19.3285 5.98197
ltibia 53.511
lfoot -27.0272 34.544
ltoes 8.2331
265
root 0.0721526 16.8862 -15.1815 82.7377 -24.3192 -404.635
lowerback 14.3124 1.92223 -3.90658
upperback -2.52624 1.48787 -3.08308
thorax -10.8535 0.818385 -1.49428
lowerneck -17.2355 -2.47172 -4.95293
upperneck 3.06441 -4.36055 21.7795
head 4.50898 -1.14642 7.36398
rclavicle 7.95139e-014 -6.67916e-014
rhumerus -14.597 -15.5013 -12.6547
rradius 41.1798
rwrist -0.997008
rhand -29.2223 -66.2514
rfingers 7.12502
rthumb -2.56637 96.2157
lclavicle 7.95139e-014 -6.67916e-014
lhumerus -8.02435 -3.35215 39.068
lradius 46.7356
lwrist 24.8034
lhand -41.7477 325.852
lfingers 7.12502
lthumb -14.6521 -4.68526
rfemur -43.4957 -5.85711 43.3676
rtibia 33.3485
rfoot 8.04702 -11.5828
rtoes -7.74156
lfemur -79.8529 18.9665 6.63708
ltibia 52.9878
lfoot -27.6966 34.016
ltoes 14.1418
266
root 0.0684895 16.9404 -15.2295 82.5362 -25.0252 -404.753
lowerback 13.8261 1.91044 -3.65318
upperback -2.31106 1.6156 -2.5899
thorax -10.3333 0.882878 -1.10238
lowerneck -19.2471 -2.9149 -5.10145
upperneck 4.93407 -5.2607 21.5273
head 5.53437 -1.37448 7.26048
rclavicle -5.08889e-014 -1.59028e-014
rhumerus -14.5404 -15.1947 -14.1908
rradius 41.7361
rwrist -2.0817
rhand -29.6498 -65.8993
rfingers 7.12502
rthumb -2.97923 95.8583
lclavicle -5.08889e-014 -1.59028e-014
lhumerus -8.9273 -3.18213 40.9692
lradius 47.4101
lwrist 23.8526
lhand -41.3061 326.376
lfingers 7.12502
lthumb -14.2266 -4.13165
rfemur -43.576 -5.89562 43.0095
rtibia 33.1984
rfoot 8.04876 -11.352
rtoes -7.40351
lfemur -79.077 18.7993 6.8322
ltibia 52.586
lfoot -27.9542 33.4935
ltoes 19.2376
267
root 0.0646033 16.9699 -15.2864 82.3954 -25.9472 -404.82
lowerback 13.3115 1.89143 -3.26784
upperback -2.06039 1.71466 -2.4122
thorax -9.74845 0.912724 -1.11986
lowerneck -21.1301 -3.3808 -5.14466
upperneck 6.41149 -6.16232 21.4271
head 6.43617 -1.62648 7.17444
rclavicle 3.18055e-014 4.45278e-014
rhumerus -14.7289 -15.3552 -15.8498
rradius 42.3551
rwrist -1.90816
rhand -28.7911 -65.9636
rfingers 7.12502
rthumb -2.14996 95.9325
lclavicle 3.18055e-014 4.45278e-014
lhumerus -9.36212 -3.5236 42.504
lradius 47.9423
lwrist 22.9469
lhand -41.2376 326.54
lfingers 7.12502
lthumb -14.1605 -3.96279
rfemur -43.8856 -6.19862 42.5245
rtibia 33.2925
rfoot 7.70692 -10.7579
rtoes -6.74312
lfemur -78.5969 18.9263 6.19163
ltibia 52.2578
lfoot -27.5905 33.1059
ltoes 20.9337
268
root 0.0639875 16.995 -15.33 81.8945 -26.8756 -404.798
lowerback 13.0719 1.68729 -2.26655
upperback -1.63437 1.61268 -2.61337
thorax -9.10351 0.802 -1.85372
lowerneck -22.1872 -3.6521 -5.11584
upperneck 6.83643 -6.70243 21.7917
head 6.85069 -1.78203 7.24655
rclavicle 3.49861e-014 -1.90833e-014
rhumerus -14.8048 -15.7744 -18.1087
rradius 42.9878
rwrist -1.87391
rhand -27.3421 -66.0995
rfingers 7.12502
rthumb -0.750499 96.0779
lclavicle 3.49861e-014 -1.90833e-014
lhumerus -9.45619 -4.265 43.2659
lradius 48.4064
lwrist 22.4611
lhand -41.2842 326.289
lfingers 7.12502
lthumb -14.2055 -4.21657
rfemur -43.7539 -5.81396 41.5609
rtibia 33.3742
rfoot 7.68404 -10.9084
rtoes -7.0916
lfemur -77.7167 18.5377 5.83203
ltibia 51.943
lfoot -27.1627 33.3607
ltoes 20.6455
269
root 0.0561233 17.0291 -15.3795 81.9346 -27.7461 -404.928
lowerback 12.4013 1.51368 -1.74322
upperback -1.49832 1.50843 -2.49928
thorax -8.55793 0.733322 -1.97627
lowerneck -22.8366 -3.82498 -5.33781
upperneck 7.1786 -7.00219 22.0906
head 7.14126 -1.85681 7.36676
rclavicle -7.63333e-014 2.54444e-014
rhumerus -14.5496 -15.3128 -20.2669
rradius 43.3529
rwrist -3.01976
rhand -27.8048 -65.6281
rfingers 7.12502
rthumb -1.19735 95.6045
lclavicle -7.63333e-014 2.54444e-014
lhumerus -9.9151 -5.03035 44.2395
lradius 48.6801
lwrist 22.5015
lhand -41.2633 324.88
lfingers 7.12502
lthumb -14.1853 -5.62399
rfemur -44.099 -5.30214 40.9198
rtibia 33.4814
rfoot 7.64632 -11.314
rtoes -6.03175
lfemur -77.0693 18.1861 5.80161
ltibia 51.5582
lfoot -26.9655 34.0771
ltoes 20.2491
